0
SECTION
2
HEADER
0
ENDSEC
0
SECTION
2
TABLES
0
TABLE
2
LTYPE
70
2
0
LTYPE
2
SOLID
70
0
3
Solid Line
72
65
73
0
40
0.000000
0
LTYPE
2
DASH
70
0
3
Dash Line
72
65
73
2
40
4.000000
49
1.500000
49
2.500000
0
ENDTAB
0
TABLE
2
LAYER
70
3
0
LAYER
2
0
70
0
62
7
6
SOLID
0
LAYER
2
CUTME
70
0
62
1
6
SOLID
0
LAYER
2
TEXT
70
0
62
3
6
SOLID
0
ENDTAB
0
ENDSEC
0
SECTION
2
BLOCKS
0
BLOCK
8
0
2
noname*1-S
70
64
10
0.000000
20
0.000000
0
TEXT
8
1
10
403.802500
20
140.000000
40
5.000000
50
90.000000
1
Piece Name: noname
7
STANDARD
0
TEXT
8
1
10
403.802500
20
135.000000
40
5.000000
50
90.000000
1
Category: 1
7
STANDARD
0
TEXT
8
1
10
403.802500
20
130.000000
40
5.000000
50
90.000000
1
Fabric: 面料A
7
STANDARD
0
TEXT
8
1
10
403.802500
20
125.000000
40
5.000000
50
90.000000
1
Size: S
7
STANDARD
0
TEXT
8
1
10
403.802500
20
120.000000
40
5.000000
50
90.000000
1
Annotation: Mat-A(L:1-R:0)
7
STANDARD
0
TEXT
8
1
10
403.802500
20
115.000000
40
5.000000
50
90.000000
1
Quantity: 1
7
STANDARD
0
POLYLINE
8
CUTME
6
SOLID
66
 1
70
1
0
VERTEX
8
CUTME
10
180.000000
20
140.000000
0
VERTEX
8
CUTME
10
180.000000
20
456.027500
0
VERTEX
8
CUTME
10
188.765000
20
449.587500
0
VERTEX
8
CUTME
10
198.055000
20
443.175000
0
VERTEX
8
CUTME
10
207.597500
20
436.910000
0
VERTEX
8
CUTME
10
218.860000
20
429.887500
0
VERTEX
8
CUTME
10
231.692500
20
422.342500
0
VERTEX
8
CUTME
10
242.257500
20
416.480000
0
VERTEX
8
CUTME
10
253.567500
20
410.547500
0
VERTEX
8
CUTME
10
265.552500
20
404.647500
0
VERTEX
8
CUTME
10
278.152500
20
398.875000
0
VERTEX
8
CUTME
10
291.310000
20
393.327500
0
VERTEX
8
CUTME
10
300.357500
20
389.805000
0
VERTEX
8
CUTME
10
309.602500
20
386.455000
0
VERTEX
8
CUTME
10
319.032500
20
383.310000
0
VERTEX
8
CUTME
10
328.625000
20
380.392500
0
VERTEX
8
CUTME
10
338.365000
20
377.735000
0
VERTEX
8
CUTME
10
348.230000
20
375.367500
0
VERTEX
8
CUTME
10
358.205000
20
373.317500
0
VERTEX
8
CUTME
10
368.270000
20
371.615000
0
VERTEX
8
CUTME
10
378.405000
20
370.287500
0
VERTEX
8
CUTME
10
388.595000
20
369.365000
0
VERTEX
8
CUTME
10
398.820000
20
368.877500
0
VERTEX
8
CUTME
10
409.062500
20
368.852500
0
VERTEX
8
CUTME
10
416.047500
20
369.115000
0
VERTEX
8
CUTME
10
431.380000
20
370.510000
0
VERTEX
8
CUTME
10
441.547500
20
372.017500
0
VERTEX
8
CUTME
10
451.642500
20
373.950000
0
VERTEX
8
CUTME
10
461.647500
20
376.270000
0
VERTEX
8
CUTME
10
471.540000
20
378.937500
0
VERTEX
8
CUTME
10
481.297500
20
381.925000
0
VERTEX
8
CUTME
10
490.897500
20
385.192500
0
VERTEX
8
CUTME
10
500.317500
20
388.702500
0
VERTEX
8
CUTME
10
509.535000
20
392.422500
0
VERTEX
8
CUTME
10
518.527500
20
396.317500
0
VERTEX
8
CUTME
10
527.272500
20
400.350000
0
VERTEX
8
CUTME
10
535.755000
20
404.485000
0
VERTEX
8
CUTME
10
547.922500
20
410.802500
0
VERTEX
8
CUTME
10
559.365000
20
417.150000
0
VERTEX
8
CUTME
10
570.005000
20
423.407500
0
VERTEX
8
CUTME
10
579.765000
20
429.455000
0
VERTEX
8
CUTME
10
591.290000
20
436.987500
0
VERTEX
8
CUTME
10
600.952500
20
443.652500
0
VERTEX
8
CUTME
10
608.560000
20
449.155000
0
VERTEX
8
CUTME
10
614.935000
20
453.982500
0
VERTEX
8
CUTME
10
617.520000
20
456.027500
0
VERTEX
8
CUTME
10
617.520000
20
140.000000
0
VERTEX
8
CUTME
10
180.000000
20
140.000000
0
SEQEND
8
1
0
POINT
8
2
10
180.000000
20
140.000000
0
POINT
8
2
10
180.000000
20
456.027500
0
POINT
8
2
10
617.520000
20
456.027500
0
POINT
8
2
10
617.520000
20
140.000000
0
LINE
8
7
10
403.802500
20
140.000000
11
403.802500
21
368.862500
0
LINE
8
5
10
403.802500
20
140.000000
11
423.802500
21
140.000000
0
ENDBLK
0
BLOCK
8
0
2
noname*1-M
70
64
10
0.000000
20
0.000000
0
TEXT
8
1
10
403.802500
20
129.295000
40
5.000000
50
90.000000
1
Piece Name: noname
7
STANDARD
0
TEXT
8
1
10
403.802500
20
124.295000
40
5.000000
50
90.000000
1
Category: 2
7
STANDARD
0
TEXT
8
1
10
403.802500
20
119.295000
40
5.000000
50
90.000000
1
Fabric: 面料A
7
STANDARD
0
TEXT
8
1
10
403.802500
20
114.295000
40
5.000000
50
90.000000
1
Size: M
7
STANDARD
0
TEXT
8
1
10
403.802500
20
109.295000
40
5.000000
50
90.000000
1
Annotation: Mat-A(L:1-R:0)
7
STANDARD
0
TEXT
8
1
10
403.802500
20
104.295000
40
5.000000
50
90.000000
1
Quantity: 1
7
STANDARD
0
POLYLINE
8
CUTME
6
SOLID
66
 1
70
1
0
VERTEX
8
CUTME
10
140.000000
20
100.000000
0
VERTEX
8
CUTME
10
140.000000
20
496.027500
0
VERTEX
8
CUTME
10
150.367500
20
488.410000
0
VERTEX
8
CUTME
10
161.355000
20
480.825000
0
VERTEX
8
CUTME
10
172.642500
20
473.415000
0
VERTEX
8
CUTME
10
185.962500
20
465.110000
0
VERTEX
8
CUTME
10
201.145000
20
456.185000
0
VERTEX
8
CUTME
10
213.642500
20
449.247500
0
VERTEX
8
CUTME
10
227.017500
20
442.232500
0
VERTEX
8
CUTME
10
241.195000
20
435.252500
0
VERTEX
8
CUTME
10
256.102500
20
428.425000
0
VERTEX
8
CUTME
10
271.662500
20
421.865000
0
VERTEX
8
CUTME
10
282.362500
20
417.697500
0
VERTEX
8
CUTME
10
293.300000
20
413.735000
0
VERTEX
8
CUTME
10
304.457500
20
410.012500
0
VERTEX
8
CUTME
10
315.800000
20
406.562500
0
VERTEX
8
CUTME
10
327.320000
20
403.420000
0
VERTEX
8
CUTME
10
338.990000
20
400.620000
0
VERTEX
8
CUTME
10
350.787500
20
398.195000
0
VERTEX
8
CUTME
10
362.692500
20
396.180000
0
VERTEX
8
CUTME
10
374.682500
20
394.610000
0
VERTEX
8
CUTME
10
386.735000
20
393.520000
0
VERTEX
8
CUTME
10
398.832500
20
392.942500
0
VERTEX
8
CUTME
10
410.945000
20
392.912500
0
VERTEX
8
CUTME
10
419.210000
20
393.225000
0
VERTEX
8
CUTME
10
437.342500
20
394.872500
0
VERTEX
8
CUTME
10
449.367500
20
396.657500
0
VERTEX
8
CUTME
10
461.310000
20
398.942500
0
VERTEX
8
CUTME
10
473.145000
20
401.685000
0
VERTEX
8
CUTME
10
484.847500
20
404.842500
0
VERTEX
8
CUTME
10
496.387500
20
408.375000
0
VERTEX
8
CUTME
10
507.742500
20
412.240000
0
VERTEX
8
CUTME
10
518.887500
20
416.392500
0
VERTEX
8
CUTME
10
529.787500
20
420.792500
0
VERTEX
8
CUTME
10
540.425000
20
425.400000
0
VERTEX
8
CUTME
10
550.775000
20
430.170000
0
VERTEX
8
CUTME
10
560.805000
20
435.060000
0
VERTEX
8
CUTME
10
575.195000
20
442.532500
0
VERTEX
8
CUTME
10
588.727500
20
450.040000
0
VERTEX
8
CUTME
10
601.315000
20
457.442500
0
VERTEX
8
CUTME
10
612.862500
20
464.597500
0
VERTEX
8
CUTME
10
626.495000
20
473.507500
0
VERTEX
8
CUTME
10
637.920000
20
481.387500
0
VERTEX
8
CUTME
10
646.920000
20
487.900000
0
VERTEX
8
CUTME
10
654.460000
20
493.607500
0
VERTEX
8
CUTME
10
657.520000
20
496.027500
0
VERTEX
8
CUTME
10
657.520000
20
100.000000
0
VERTEX
8
CUTME
10
140.000000
20
100.000000
0
SEQEND
8
1
0
POINT
8
2
10
140.000000
20
100.000000
0
POINT
8
2
10
140.000000
20
496.027500
0
POINT
8
2
10
657.520000
20
496.027500
0
POINT
8
2
10
657.520000
20
100.000000
0
LINE
8
7
10
403.802500
20
129.295000
11
403.802500
21
363.637500
0
LINE
8
5
10
403.802500
20
129.295000
11
423.802500
21
129.295000
0
ENDBLK
0
BLOCK
8
0
2
noname*1-L
70
64
10
0.000000
20
0.000000
0
TEXT
8
1
10
403.802500
20
129.295000
40
5.000000
50
90.000000
1
Piece Name: noname
7
STANDARD
0
TEXT
8
1
10
403.802500
20
124.295000
40
5.000000
50
90.000000
1
Category: 3
7
STANDARD
0
TEXT
8
1
10
403.802500
20
119.295000
40
5.000000
50
90.000000
1
Fabric: 面料A
7
STANDARD
0
TEXT
8
1
10
403.802500
20
114.295000
40
5.000000
50
90.000000
1
Size: L
7
STANDARD
0
TEXT
8
1
10
403.802500
20
109.295000
40
5.000000
50
90.000000
1
Annotation: Mat-A(L:1-R:0)
7
STANDARD
0
TEXT
8
1
10
403.802500
20
104.295000
40
5.000000
50
90.000000
1
Quantity: 1
7
STANDARD
0
POLYLINE
8
CUTME
6
SOLID
66
 1
70
1
0
VERTEX
8
CUTME
10
100.000000
20
60.000000
0
VERTEX
8
CUTME
10
100.000000
20
536.027500
0
VERTEX
8
CUTME
10
111.972500
20
527.230000
0
VERTEX
8
CUTME
10
124.657500
20
518.475000
0
VERTEX
8
CUTME
10
137.687500
20
509.920000
0
VERTEX
8
CUTME
10
153.067500
20
500.330000
0
VERTEX
8
CUTME
10
170.595000
20
490.025000
0
VERTEX
8
CUTME
10
185.025000
20
482.015000
0
VERTEX
8
CUTME
10
200.467500
20
473.917500
0
VERTEX
8
CUTME
10
216.837500
20
465.857500
0
VERTEX
8
CUTME
10
234.047500
20
457.975000
0
VERTEX
8
CUTME
10
252.012500
20
450.400000
0
VERTEX
8
CUTME
10
264.367500
20
445.590000
0
VERTEX
8
CUTME
10
276.997500
20
441.012500
0
VERTEX
8
CUTME
10
289.877500
20
436.715000
0
VERTEX
8
CUTME
10
302.977500
20
432.732500
0
VERTEX
8
CUTME
10
316.275000
20
429.105000
0
VERTEX
8
CUTME
10
329.752500
20
425.872500
0
VERTEX
8
CUTME
10
343.370000
20
423.072500
0
VERTEX
8
CUTME
10
357.117500
20
420.745000
0
VERTEX
8
CUTME
10
370.960000
20
418.932500
0
VERTEX
8
CUTME
10
384.875000
20
417.675000
0
VERTEX
8
CUTME
10
398.842500
20
417.007500
0
VERTEX
8
CUTME
10
412.827500
20
416.972500
0
VERTEX
8
CUTME
10
422.370000
20
417.332500
0
VERTEX
8
CUTME
10
443.307500
20
419.235000
0
VERTEX
8
CUTME
10
457.190000
20
421.297500
0
VERTEX
8
CUTME
10
470.980000
20
423.935000
0
VERTEX
8
CUTME
10
484.642500
20
427.100000
0
VERTEX
8
CUTME
10
498.155000
20
430.747500
0
VERTEX
8
CUTME
10
511.477500
20
434.825000
0
VERTEX
8
CUTME
10
524.590000
20
439.287500
0
VERTEX
8
CUTME
10
537.455000
20
444.082500
0
VERTEX
8
CUTME
10
550.042500
20
449.162500
0
VERTEX
8
CUTME
10
562.322500
20
454.482500
0
VERTEX
8
CUTME
10
574.272500
20
459.990000
0
VERTEX
8
CUTME
10
585.850000
20
465.635000
0
VERTEX
8
CUTME
10
602.470000
20
474.262500
0
VERTEX
8
CUTME
10
618.095000
20
482.930000
0
VERTEX
8
CUTME
10
632.627500
20
491.480000
0
VERTEX
8
CUTME
10
645.960000
20
499.740000
0
VERTEX
8
CUTME
10
661.697500
20
510.025000
0
VERTEX
8
CUTME
10
674.890000
20
519.125000
0
VERTEX
8
CUTME
10
685.282500
20
526.642500
0
VERTEX
8
CUTME
10
693.987500
20
533.235000
0
VERTEX
8
CUTME
10
697.520000
20
536.027500
0
VERTEX
8
CUTME
10
697.520000
20
60.000000
0
VERTEX
8
CUTME
10
100.000000
20
60.000000
0
SEQEND
8
1
0
POINT
8
2
10
100.000000
20
60.000000
0
POINT
8
2
10
100.000000
20
536.027500
0
POINT
8
2
10
697.520000
20
536.027500
0
POINT
8
2
10
697.520000
20
60.000000
0
LINE
8
7
10
403.802500
20
129.295000
11
403.802500
21
363.637500
0
LINE
8
5
10
403.802500
20
129.295000
11
423.802500
21
129.295000
0
ENDBLK
0
ENDSEC
0
SECTION
2
ENTITIES
0
TEXT
8
1
10
0.000000
20
386.027500
40
5.000000
50
0.000000
1
Style Name: 
7
STANDARD
0
TEXT
8
1
10
0.000000
20
381.027500
40
5.000000
50
0.000000
1
Creation Date: 26-3-2020
7
STANDARD
0
TEXT
8
1
10
0.000000
20
376.027500
40
5.000000
50
0.000000
1
Creation Time: 17:23
7
STANDARD
0
TEXT
8
1
10
0.000000
20
371.027500
40
5.000000
50
0.000000
1
Author: BOKE TECHNOLOGY
7
STANDARD
0
TEXT
8
1
10
0.000000
20
366.027500
40
5.000000
50
0.000000
1
VERSION: 2012
7
STANDARD
0
TEXT
8
1
10
0.000000
20
361.027500
40
5.000000
50
0.000000
1
Sample Size: M
7
STANDARD
0
TEXT
8
1
10
0.000000
20
356.027500
40
5.000000
50
0.000000
1
Units: METRIC
7
STANDARD
0
TEXT
8
1
10
0.000000
20
351.027500
40
5.000000
50
0.000000
1
TOLERANCE: .006
7
STANDARD
0
INSERT
8
1
2
noname*1-S
10
0.000000
20
0.000000
41
1.000000
42
1.000000
50
0.000000
0
INSERT
8
1
2
noname*1-M
10
0.000000
20
0.000000
41
1.000000
42
1.000000
50
0.000000
0
INSERT
8
1
2
noname*1-L
10
0.000000
20
0.000000
41
1.000000
42
1.000000
50
0.000000
0
ENDSEC
0
EOF
