<svg xmlns="http://www.w3.org/2000/svg" version="1.1" style=" fill: transparent; stroke: #8DA2C2;" width="598" height="477" viewBox="0 0 598 477">
  <g id="P1">
    <polygon layerName="CUTME"  points="80,396.0275 80,80 88.765,86.44 98.055,92.8525 107.5975,99.1175 118.86,106.14 131.6925,113.685 142.2575,119.5475 153.5675,125.48 165.5525,131.38 178.1525,137.1525 191.31,142.7 200.3575,146.2225 209.6025,149.5725 219.0325,152.7175 228.625,155.635 238.365,158.2925 248.23,160.66 258.205,162.71 268.27,164.4125 278.405,165.74 288.595,166.6625 298.82,167.15 309.0625,167.175 316.0475,166.9125 331.38,165.5175 341.5475,164.01 351.6425,162.0775 361.6475,159.7575 371.54,157.09 381.2975,154.1025 390.8975,150.835 400.3175,147.325 409.535,143.605 418.5275,139.71 427.2725,135.6775 435.755,131.5425 447.9225,125.225 459.365,118.8775 470.005,112.62 479.765,106.5725 491.29,99.04 500.9525,92.375 508.56,86.8725 514.935,82.045 517.52,80 517.52,396.0275 80,396.0275" />
  <circle cx="80.0" cy="396.02750000000003" r="2" stroke="blue"
stroke-width="0.5" fill="green" layerName="null"/>
  <circle cx="80.0" cy="80.00000000000006" r="2" stroke="blue"
stroke-width="0.5" fill="green" layerName="null"/>
  <circle cx="88.76499999999999" cy="86.44000000000005" r="2" stroke="blue"
stroke-width="0.5" fill="green" layerName="null"/>
  <circle cx="98.055" cy="92.85250000000002" r="2" stroke="blue"
stroke-width="0.5" fill="green" layerName="null"/>
  <circle cx="107.5975" cy="99.1175" r="2" stroke="blue"
stroke-width="0.5" fill="green" layerName="null"/>
  <circle cx="118.86000000000001" cy="106.14000000000004" r="2" stroke="blue"
stroke-width="0.5" fill="green" layerName="null"/>
  <circle cx="131.6925" cy="113.68500000000006" r="2" stroke="blue"
stroke-width="0.5" fill="green" layerName="null"/>
  <circle cx="142.2575" cy="119.54750000000001" r="2" stroke="blue"
stroke-width="0.5" fill="green" layerName="null"/>
  <circle cx="153.5675" cy="125.48000000000002" r="2" stroke="blue"
stroke-width="0.5" fill="green" layerName="null"/>
  <circle cx="165.5525" cy="131.38000000000005" r="2" stroke="blue"
stroke-width="0.5" fill="green" layerName="null"/>
  <circle cx="178.15249999999997" cy="137.15250000000003" r="2" stroke="blue"
stroke-width="0.5" fill="green" layerName="null"/>
  <circle cx="191.31" cy="142.70000000000005" r="2" stroke="blue"
stroke-width="0.5" fill="green" layerName="null"/>
  <circle cx="200.35750000000002" cy="146.22250000000003" r="2" stroke="blue"
stroke-width="0.5" fill="green" layerName="null"/>
  <circle cx="209.60250000000002" cy="149.57250000000005" r="2" stroke="blue"
stroke-width="0.5" fill="green" layerName="null"/>
  <circle cx="219.03250000000003" cy="152.71750000000003" r="2" stroke="blue"
stroke-width="0.5" fill="green" layerName="null"/>
  <circle cx="228.625" cy="155.63500000000005" r="2" stroke="blue"
stroke-width="0.5" fill="green" layerName="null"/>
  <circle cx="238.365" cy="158.29250000000002" r="2" stroke="blue"
stroke-width="0.5" fill="green" layerName="null"/>
  <circle cx="248.23000000000002" cy="160.66000000000003" r="2" stroke="blue"
stroke-width="0.5" fill="green" layerName="null"/>
  <circle cx="258.205" cy="162.71000000000004" r="2" stroke="blue"
stroke-width="0.5" fill="green" layerName="null"/>
  <circle cx="268.27" cy="164.41250000000002" r="2" stroke="blue"
stroke-width="0.5" fill="green" layerName="null"/>
  <circle cx="278.405" cy="165.74" r="2" stroke="blue"
stroke-width="0.5" fill="green" layerName="null"/>
  <circle cx="288.595" cy="166.66250000000002" r="2" stroke="blue"
stroke-width="0.5" fill="green" layerName="null"/>
  <circle cx="298.82" cy="167.15000000000003" r="2" stroke="blue"
stroke-width="0.5" fill="green" layerName="null"/>
  <circle cx="309.0625" cy="167.175" r="2" stroke="blue"
stroke-width="0.5" fill="green" layerName="null"/>
  <circle cx="316.0475" cy="166.91250000000002" r="2" stroke="blue"
stroke-width="0.5" fill="green" layerName="null"/>
  <circle cx="331.38" cy="165.51750000000004" r="2" stroke="blue"
stroke-width="0.5" fill="green" layerName="null"/>
  <circle cx="341.5475" cy="164.01000000000005" r="2" stroke="blue"
stroke-width="0.5" fill="green" layerName="null"/>
  <circle cx="351.6425" cy="162.07750000000004" r="2" stroke="blue"
stroke-width="0.5" fill="green" layerName="null"/>
  <circle cx="361.6475" cy="159.75750000000005" r="2" stroke="blue"
stroke-width="0.5" fill="green" layerName="null"/>
  <circle cx="371.54" cy="157.09000000000003" r="2" stroke="blue"
stroke-width="0.5" fill="green" layerName="null"/>
  <circle cx="381.2975" cy="154.10250000000002" r="2" stroke="blue"
stroke-width="0.5" fill="green" layerName="null"/>
  <circle cx="390.8975" cy="150.83500000000004" r="2" stroke="blue"
stroke-width="0.5" fill="green" layerName="null"/>
  <circle cx="400.3175" cy="147.32500000000005" r="2" stroke="blue"
stroke-width="0.5" fill="green" layerName="null"/>
  <circle cx="409.535" cy="143.60500000000002" r="2" stroke="blue"
stroke-width="0.5" fill="green" layerName="null"/>
  <circle cx="418.52750000000003" cy="139.71000000000004" r="2" stroke="blue"
stroke-width="0.5" fill="green" layerName="null"/>
  <circle cx="427.27250000000004" cy="135.6775" r="2" stroke="blue"
stroke-width="0.5" fill="green" layerName="null"/>
  <circle cx="435.755" cy="131.54250000000002" r="2" stroke="blue"
stroke-width="0.5" fill="green" layerName="null"/>
  <circle cx="447.9225" cy="125.22500000000002" r="2" stroke="blue"
stroke-width="0.5" fill="green" layerName="null"/>
  <circle cx="459.365" cy="118.87750000000005" r="2" stroke="blue"
stroke-width="0.5" fill="green" layerName="null"/>
  <circle cx="470.005" cy="112.62" r="2" stroke="blue"
stroke-width="0.5" fill="green" layerName="null"/>
  <circle cx="479.765" cy="106.57250000000005" r="2" stroke="blue"
stroke-width="0.5" fill="green" layerName="null"/>
  <circle cx="491.28999999999996" cy="99.04000000000002" r="2" stroke="blue"
stroke-width="0.5" fill="green" layerName="null"/>
  <circle cx="500.9525" cy="92.37500000000006" r="2" stroke="blue"
stroke-width="0.5" fill="green" layerName="null"/>
  <circle cx="508.55999999999995" cy="86.87250000000006" r="2" stroke="blue"
stroke-width="0.5" fill="green" layerName="null"/>
  <circle cx="514.935" cy="82.04500000000002" r="2" stroke="blue"
stroke-width="0.5" fill="green" layerName="null"/>
  <circle cx="517.52" cy="80.00000000000006" r="2" stroke="blue"
stroke-width="0.5" fill="green" layerName="null"/>
  <circle cx="517.52" cy="396.02750000000003" r="2" stroke="blue"
stroke-width="0.5" fill="green" layerName="null"/>
  <circle cx="80.0" cy="396.02750000000003" r="2" stroke="blue"
stroke-width="0.5" fill="green" layerName="null"/>
    <polyline layerName="7"  points="303.8025,396.0275 303.8025,167.165" />
  <circle cx="303.8025" cy="396.02750000000003" r="2" stroke="blue"
stroke-width="0.5" fill="green" layerName="null"/>
  <circle cx="303.8025" cy="167.16500000000002" r="2" stroke="blue"
stroke-width="0.5" fill="green" layerName="null"/>
    <polyline layerName="5"  points="303.8025,396.0275 323.8025,396.0275" />
  <circle cx="303.8025" cy="396.02750000000003" r="2" stroke="blue"
stroke-width="0.5" fill="green" layerName="null"/>
  <circle cx="323.8025" cy="396.02750000000003" r="2" stroke="blue"
stroke-width="0.5" fill="green" layerName="null"/>


  <circle cx="80.0" cy="396.02750000000003" r="1" stroke="black"
stroke-width="0.5" fill="red" layerName="2"/>
  <circle cx="80.0" cy="80.00000000000006" r="1" stroke="black"
stroke-width="0.5" fill="red" layerName="2"/>
  <circle cx="517.52" cy="80.00000000000006" r="1" stroke="black"
stroke-width="0.5" fill="red" layerName="2"/>
  <circle cx="517.52" cy="396.02750000000003" r="1" stroke="black"
stroke-width="0.5" fill="red" layerName="2"/>
  </g>
  <g id="P2">
    <polygon layerName="CUTME"  points="40,436.0275 40,40 50.3675,47.6175 61.355,55.2025 72.6425,62.6125 85.9625,70.9175 101.145,79.8425 113.6425,86.78 127.0175,93.795 141.195,100.775 156.1025,107.6025 171.6625,114.1625 182.3625,118.33 193.3,122.2925 204.4575,126.015 215.8,129.465 227.32,132.6075 238.99,135.4075 250.7875,137.8325 262.6925,139.8475 274.6825,141.4175 286.735,142.5075 298.8325,143.085 310.945,143.115 319.21,142.8025 337.3425,141.155 349.3675,139.37 361.31,137.085 373.145,134.3425 384.8475,131.185 396.3875,127.6525 407.7425,123.7875 418.8875,119.635 429.7875,115.235 440.425,110.6275 450.775,105.8575 460.805,100.9675 475.195,93.495 488.7275,85.9875 501.315,78.585 512.8625,71.43 526.495,62.52 537.92,54.64 546.92,48.1275 554.46,42.42 557.52,40 557.52,436.0275 40,436.0275" />
  <circle cx="40.0" cy="436.02750000000003" r="2" stroke="blue"
stroke-width="0.5" fill="green" layerName="null"/>
  <circle cx="40.0" cy="40.00000000000006" r="2" stroke="blue"
stroke-width="0.5" fill="green" layerName="null"/>
  <circle cx="50.36750000000001" cy="47.61750000000001" r="2" stroke="blue"
stroke-width="0.5" fill="green" layerName="null"/>
  <circle cx="61.35499999999999" cy="55.20250000000004" r="2" stroke="blue"
stroke-width="0.5" fill="green" layerName="null"/>
  <circle cx="72.64250000000001" cy="62.61250000000001" r="2" stroke="blue"
stroke-width="0.5" fill="green" layerName="null"/>
  <circle cx="85.9625" cy="70.91750000000002" r="2" stroke="blue"
stroke-width="0.5" fill="green" layerName="null"/>
  <circle cx="101.14500000000001" cy="79.84250000000003" r="2" stroke="blue"
stroke-width="0.5" fill="green" layerName="null"/>
  <circle cx="113.64250000000001" cy="86.78000000000003" r="2" stroke="blue"
stroke-width="0.5" fill="green" layerName="null"/>
  <circle cx="127.01750000000001" cy="93.79500000000002" r="2" stroke="blue"
stroke-width="0.5" fill="green" layerName="null"/>
  <circle cx="141.195" cy="100.77500000000003" r="2" stroke="blue"
stroke-width="0.5" fill="green" layerName="null"/>
  <circle cx="156.10250000000002" cy="107.60250000000002" r="2" stroke="blue"
stroke-width="0.5" fill="green" layerName="null"/>
  <circle cx="171.66250000000002" cy="114.16250000000002" r="2" stroke="blue"
stroke-width="0.5" fill="green" layerName="null"/>
  <circle cx="182.3625" cy="118.33000000000004" r="2" stroke="blue"
stroke-width="0.5" fill="green" layerName="null"/>
  <circle cx="193.3" cy="122.29250000000002" r="2" stroke="blue"
stroke-width="0.5" fill="green" layerName="null"/>
  <circle cx="204.45749999999998" cy="126.01500000000004" r="2" stroke="blue"
stroke-width="0.5" fill="green" layerName="null"/>
  <circle cx="215.8" cy="129.46500000000003" r="2" stroke="blue"
stroke-width="0.5" fill="green" layerName="null"/>
  <circle cx="227.32" cy="132.60750000000002" r="2" stroke="blue"
stroke-width="0.5" fill="green" layerName="null"/>
  <circle cx="238.99" cy="135.40750000000003" r="2" stroke="blue"
stroke-width="0.5" fill="green" layerName="null"/>
  <circle cx="250.78750000000002" cy="137.83250000000004" r="2" stroke="blue"
stroke-width="0.5" fill="green" layerName="null"/>
  <circle cx="262.6925" cy="139.84750000000003" r="2" stroke="blue"
stroke-width="0.5" fill="green" layerName="null"/>
  <circle cx="274.6825" cy="141.41750000000002" r="2" stroke="blue"
stroke-width="0.5" fill="green" layerName="null"/>
  <circle cx="286.735" cy="142.50750000000005" r="2" stroke="blue"
stroke-width="0.5" fill="green" layerName="null"/>
  <circle cx="298.8325" cy="143.08500000000004" r="2" stroke="blue"
stroke-width="0.5" fill="green" layerName="null"/>
  <circle cx="310.945" cy="143.115" r="2" stroke="blue"
stroke-width="0.5" fill="green" layerName="null"/>
  <circle cx="319.21" cy="142.8025" r="2" stroke="blue"
stroke-width="0.5" fill="green" layerName="null"/>
  <circle cx="337.3425" cy="141.15500000000003" r="2" stroke="blue"
stroke-width="0.5" fill="green" layerName="null"/>
  <circle cx="349.3675" cy="139.37" r="2" stroke="blue"
stroke-width="0.5" fill="green" layerName="null"/>
  <circle cx="361.31" cy="137.08500000000004" r="2" stroke="blue"
stroke-width="0.5" fill="green" layerName="null"/>
  <circle cx="373.145" cy="134.34250000000003" r="2" stroke="blue"
stroke-width="0.5" fill="green" layerName="null"/>
  <circle cx="384.8475" cy="131.18500000000006" r="2" stroke="blue"
stroke-width="0.5" fill="green" layerName="null"/>
  <circle cx="396.3875" cy="127.65250000000003" r="2" stroke="blue"
stroke-width="0.5" fill="green" layerName="null"/>
  <circle cx="407.7425" cy="123.78750000000002" r="2" stroke="blue"
stroke-width="0.5" fill="green" layerName="null"/>
  <circle cx="418.88750000000005" cy="119.63500000000005" r="2" stroke="blue"
stroke-width="0.5" fill="green" layerName="null"/>
  <circle cx="429.7875" cy="115.23500000000001" r="2" stroke="blue"
stroke-width="0.5" fill="green" layerName="null"/>
  <circle cx="440.42499999999995" cy="110.62750000000005" r="2" stroke="blue"
stroke-width="0.5" fill="green" layerName="null"/>
  <circle cx="450.775" cy="105.85750000000002" r="2" stroke="blue"
stroke-width="0.5" fill="green" layerName="null"/>
  <circle cx="460.80499999999995" cy="100.96750000000003" r="2" stroke="blue"
stroke-width="0.5" fill="green" layerName="null"/>
  <circle cx="475.19500000000005" cy="93.495" r="2" stroke="blue"
stroke-width="0.5" fill="green" layerName="null"/>
  <circle cx="488.72749999999996" cy="85.98750000000001" r="2" stroke="blue"
stroke-width="0.5" fill="green" layerName="null"/>
  <circle cx="501.31500000000005" cy="78.58500000000004" r="2" stroke="blue"
stroke-width="0.5" fill="green" layerName="null"/>
  <circle cx="512.8625" cy="71.43" r="2" stroke="blue"
stroke-width="0.5" fill="green" layerName="null"/>
  <circle cx="526.495" cy="62.52000000000004" r="2" stroke="blue"
stroke-width="0.5" fill="green" layerName="null"/>
  <circle cx="537.92" cy="54.64000000000004" r="2" stroke="blue"
stroke-width="0.5" fill="green" layerName="null"/>
  <circle cx="546.92" cy="48.127500000000055" r="2" stroke="blue"
stroke-width="0.5" fill="green" layerName="null"/>
  <circle cx="554.46" cy="42.420000000000016" r="2" stroke="blue"
stroke-width="0.5" fill="green" layerName="null"/>
  <circle cx="557.52" cy="40.00000000000006" r="2" stroke="blue"
stroke-width="0.5" fill="green" layerName="null"/>
  <circle cx="557.52" cy="436.02750000000003" r="2" stroke="blue"
stroke-width="0.5" fill="green" layerName="null"/>
  <circle cx="40.0" cy="436.02750000000003" r="2" stroke="blue"
stroke-width="0.5" fill="green" layerName="null"/>
    <polyline layerName="7"  points="303.8025,406.7325 303.8025,172.39" />
  <circle cx="303.8025" cy="406.7325000000001" r="2" stroke="blue"
stroke-width="0.5" fill="green" layerName="null"/>
  <circle cx="303.8025" cy="172.39000000000004" r="2" stroke="blue"
stroke-width="0.5" fill="green" layerName="null"/>
    <polyline layerName="5"  points="303.8025,406.7325 323.8025,406.7325" />
  <circle cx="303.8025" cy="406.7325000000001" r="2" stroke="blue"
stroke-width="0.5" fill="green" layerName="null"/>
  <circle cx="323.8025" cy="406.7325000000001" r="2" stroke="blue"
stroke-width="0.5" fill="green" layerName="null"/>


  <circle cx="40.0" cy="436.02750000000003" r="1" stroke="black"
stroke-width="0.5" fill="red" layerName="2"/>
  <circle cx="40.0" cy="40.00000000000006" r="1" stroke="black"
stroke-width="0.5" fill="red" layerName="2"/>
  <circle cx="557.52" cy="40.00000000000006" r="1" stroke="black"
stroke-width="0.5" fill="red" layerName="2"/>
  <circle cx="557.52" cy="436.02750000000003" r="1" stroke="black"
stroke-width="0.5" fill="red" layerName="2"/>
  </g>
  <g id="P3">
    <polygon layerName="CUTME"  points="0,476.0275 0,0 11.9725,8.7975 24.6575,17.5525 37.6875,26.1075 53.0675,35.6975 70.595,46.0025 85.025,54.0125 100.4675,62.11 116.8375,70.17 134.0475,78.0525 152.0125,85.6275 164.3675,90.4375 176.9975,95.015 189.8775,99.3125 202.9775,103.295 216.275,106.9225 229.7525,110.155 243.37,112.955 257.1175,115.2825 270.96,117.095 284.875,118.3525 298.8425,119.02 312.8275,119.055 322.37,118.695 343.3075,116.7925 357.19,114.73 370.98,112.0925 384.6425,108.9275 398.155,105.28 411.4775,101.2025 424.59,96.74 437.455,91.945 450.0425,86.865 462.3225,81.545 474.2725,76.0375 485.85,70.3925 502.47,61.765 518.095,53.0975 532.6275,44.5475 545.96,36.2875 561.6975,26.0025 574.89,16.9025 585.2825,9.385 593.9875,2.7925 597.52,0 597.52,476.0275 0,476.0275" />
  <circle cx="0.0" cy="476.02750000000003" r="2" stroke="blue"
stroke-width="0.5" fill="green" layerName="null"/>
  <circle cx="0.0" cy="0.0" r="2" stroke="blue"
stroke-width="0.5" fill="green" layerName="null"/>
  <circle cx="11.972499999999997" cy="8.797500000000014" r="2" stroke="blue"
stroke-width="0.5" fill="green" layerName="null"/>
  <circle cx="24.6575" cy="17.55250000000001" r="2" stroke="blue"
stroke-width="0.5" fill="green" layerName="null"/>
  <circle cx="37.6875" cy="26.107500000000016" r="2" stroke="blue"
stroke-width="0.5" fill="green" layerName="null"/>
  <circle cx="53.067499999999995" cy="35.69750000000005" r="2" stroke="blue"
stroke-width="0.5" fill="green" layerName="null"/>
  <circle cx="70.595" cy="46.002500000000055" r="2" stroke="blue"
stroke-width="0.5" fill="green" layerName="null"/>
  <circle cx="85.025" cy="54.012500000000045" r="2" stroke="blue"
stroke-width="0.5" fill="green" layerName="null"/>
  <circle cx="100.4675" cy="62.110000000000014" r="2" stroke="blue"
stroke-width="0.5" fill="green" layerName="null"/>
  <circle cx="116.8375" cy="70.17000000000002" r="2" stroke="blue"
stroke-width="0.5" fill="green" layerName="null"/>
  <circle cx="134.0475" cy="78.05250000000001" r="2" stroke="blue"
stroke-width="0.5" fill="green" layerName="null"/>
  <circle cx="152.0125" cy="85.62750000000005" r="2" stroke="blue"
stroke-width="0.5" fill="green" layerName="null"/>
  <circle cx="164.3675" cy="90.43750000000006" r="2" stroke="blue"
stroke-width="0.5" fill="green" layerName="null"/>
  <circle cx="176.9975" cy="95.01500000000004" r="2" stroke="blue"
stroke-width="0.5" fill="green" layerName="null"/>
  <circle cx="189.8775" cy="99.31250000000006" r="2" stroke="blue"
stroke-width="0.5" fill="green" layerName="null"/>
  <circle cx="202.97750000000002" cy="103.29500000000002" r="2" stroke="blue"
stroke-width="0.5" fill="green" layerName="null"/>
  <circle cx="216.27499999999998" cy="106.92250000000001" r="2" stroke="blue"
stroke-width="0.5" fill="green" layerName="null"/>
  <circle cx="229.7525" cy="110.15500000000003" r="2" stroke="blue"
stroke-width="0.5" fill="green" layerName="null"/>
  <circle cx="243.37" cy="112.95500000000004" r="2" stroke="blue"
stroke-width="0.5" fill="green" layerName="null"/>
  <circle cx="257.1175" cy="115.28250000000003" r="2" stroke="blue"
stroke-width="0.5" fill="green" layerName="null"/>
  <circle cx="270.96" cy="117.09500000000003" r="2" stroke="blue"
stroke-width="0.5" fill="green" layerName="null"/>
  <circle cx="284.875" cy="118.35250000000002" r="2" stroke="blue"
stroke-width="0.5" fill="green" layerName="null"/>
  <circle cx="298.8425" cy="119.02000000000004" r="2" stroke="blue"
stroke-width="0.5" fill="green" layerName="null"/>
  <circle cx="312.8275" cy="119.055" r="2" stroke="blue"
stroke-width="0.5" fill="green" layerName="null"/>
  <circle cx="322.37" cy="118.69500000000005" r="2" stroke="blue"
stroke-width="0.5" fill="green" layerName="null"/>
  <circle cx="343.3075" cy="116.79250000000002" r="2" stroke="blue"
stroke-width="0.5" fill="green" layerName="null"/>
  <circle cx="357.19" cy="114.73000000000002" r="2" stroke="blue"
stroke-width="0.5" fill="green" layerName="null"/>
  <circle cx="370.98" cy="112.09250000000003" r="2" stroke="blue"
stroke-width="0.5" fill="green" layerName="null"/>
  <circle cx="384.6425" cy="108.92750000000001" r="2" stroke="blue"
stroke-width="0.5" fill="green" layerName="null"/>
  <circle cx="398.155" cy="105.28000000000003" r="2" stroke="blue"
stroke-width="0.5" fill="green" layerName="null"/>
  <circle cx="411.4775" cy="101.20250000000004" r="2" stroke="blue"
stroke-width="0.5" fill="green" layerName="null"/>
  <circle cx="424.59000000000003" cy="96.74000000000001" r="2" stroke="blue"
stroke-width="0.5" fill="green" layerName="null"/>
  <circle cx="437.45500000000004" cy="91.94500000000005" r="2" stroke="blue"
stroke-width="0.5" fill="green" layerName="null"/>
  <circle cx="450.0425" cy="86.86500000000001" r="2" stroke="blue"
stroke-width="0.5" fill="green" layerName="null"/>
  <circle cx="462.3225" cy="81.54500000000002" r="2" stroke="blue"
stroke-width="0.5" fill="green" layerName="null"/>
  <circle cx="474.27250000000004" cy="76.03750000000002" r="2" stroke="blue"
stroke-width="0.5" fill="green" layerName="null"/>
  <circle cx="485.85" cy="70.39250000000004" r="2" stroke="blue"
stroke-width="0.5" fill="green" layerName="null"/>
  <circle cx="502.47" cy="61.76500000000004" r="2" stroke="blue"
stroke-width="0.5" fill="green" layerName="null"/>
  <circle cx="518.095" cy="53.097500000000025" r="2" stroke="blue"
stroke-width="0.5" fill="green" layerName="null"/>
  <circle cx="532.6275" cy="44.547500000000014" r="2" stroke="blue"
stroke-width="0.5" fill="green" layerName="null"/>
  <circle cx="545.96" cy="36.28750000000002" r="2" stroke="blue"
stroke-width="0.5" fill="green" layerName="null"/>
  <circle cx="561.6975" cy="26.002500000000055" r="2" stroke="blue"
stroke-width="0.5" fill="green" layerName="null"/>
  <circle cx="574.89" cy="16.902500000000032" r="2" stroke="blue"
stroke-width="0.5" fill="green" layerName="null"/>
  <circle cx="585.2825" cy="9.384999999999991" r="2" stroke="blue"
stroke-width="0.5" fill="green" layerName="null"/>
  <circle cx="593.9875" cy="2.792500000000018" r="2" stroke="blue"
stroke-width="0.5" fill="green" layerName="null"/>
  <circle cx="597.52" cy="0.0" r="2" stroke="blue"
stroke-width="0.5" fill="green" layerName="null"/>
  <circle cx="597.52" cy="476.02750000000003" r="2" stroke="blue"
stroke-width="0.5" fill="green" layerName="null"/>
  <circle cx="0.0" cy="476.02750000000003" r="2" stroke="blue"
stroke-width="0.5" fill="green" layerName="null"/>
    <polyline layerName="7"  points="303.8025,406.7325 303.8025,172.39" />
  <circle cx="303.8025" cy="406.7325000000001" r="2" stroke="blue"
stroke-width="0.5" fill="green" layerName="null"/>
  <circle cx="303.8025" cy="172.39000000000004" r="2" stroke="blue"
stroke-width="0.5" fill="green" layerName="null"/>
    <polyline layerName="5"  points="303.8025,406.7325 323.8025,406.7325" />
  <circle cx="303.8025" cy="406.7325000000001" r="2" stroke="blue"
stroke-width="0.5" fill="green" layerName="null"/>
  <circle cx="323.8025" cy="406.7325000000001" r="2" stroke="blue"
stroke-width="0.5" fill="green" layerName="null"/>


  <circle cx="0.0" cy="476.02750000000003" r="1" stroke="black"
stroke-width="0.5" fill="red" layerName="2"/>
  <circle cx="0.0" cy="0.0" r="1" stroke="black"
stroke-width="0.5" fill="red" layerName="2"/>
  <circle cx="597.52" cy="0.0" r="1" stroke="black"
stroke-width="0.5" fill="red" layerName="2"/>
  <circle cx="597.52" cy="476.02750000000003" r="1" stroke="black"
stroke-width="0.5" fill="red" layerName="2"/>
  </g>
</svg>