0
SECTION
2
BLOCKS
0
BLOCK
8
1
2
-M
70
0
10
0.0
20
0.0
0
POLYLINE
8
14
66
1
70
1
0
VERTEX
8
14
10
-406.542066
20
-177.570097
0
VERTEX
8
14
10
-406.542066
20
218.457949
0
VERTEX
8
14
10
-396.176086
20
210.839432
0
VERTEX
8
14
10
-385.189298
20
203.253545
0
VERTEX
8
14
10
-373.901568
20
195.843706
0
VERTEX
8
14
10
-360.581159
20
187.538838
0
VERTEX
8
14
10
-345.401639
20
178.613174
0
VERTEX
8
14
10
-332.901371
20
171.676498
0
VERTEX
8
14
10
-319.526209
20
164.660572
0
VERTEX
8
14
10
-305.349378
20
157.681088
0
VERTEX
8
14
10
-290.444102
20
150.853740
0
VERTEX
8
14
10
-274.883605
20
144.294218
0
VERTEX
8
14
10
-264.182088
20
140.127129
0
VERTEX
8
14
10
-253.243603
20
136.164771
0
VERTEX
8
14
10
-242.089844
20
132.441424
0
VERTEX
8
14
10
-230.742509
20
128.991368
0
VERTEX
8
14
10
-219.223292
20
125.848882
0
VERTEX
8
14
10
-207.553890
20
123.048244
0
VERTEX
8
14
10
-195.756000
20
120.623734
0
VERTEX
8
14
10
-183.851316
20
118.609630
0
VERTEX
8
14
10
-171.861536
20
117.040213
0
VERTEX
8
14
10
-159.808354
20
115.949761
0
VERTEX
8
14
10
-147.713468
20
115.372553
0
VERTEX
8
14
10
-135.598573
20
115.342869
0
VERTEX
8
14
10
-127.336452
20
115.654208
0
VERTEX
8
14
10
-109.202490
20
117.301721
0
VERTEX
8
14
10
-97.177350
20
119.086409
0
VERTEX
8
14
10
-85.234038
20
121.371085
0
VERTEX
8
14
10
-73.398694
20
124.113672
0
VERTEX
8
14
10
-61.697454
20
127.272094
0
VERTEX
8
14
10
-50.156458
20
130.804273
0
VERTEX
8
14
10
-38.801844
20
134.668134
0
VERTEX
8
14
10
-27.659750
20
138.821599
0
VERTEX
8
14
10
-16.756314
20
143.222593
0
VERTEX
8
14
10
-6.117675
20
147.829037
0
VERTEX
8
14
10
4.230029
20
152.598857
0
VERTEX
8
14
10
14.260661
20
157.489974
0
VERTEX
8
14
10
28.654918
20
164.962042
0
VERTEX
8
14
10
42.188732
20
172.470349
0
VERTEX
8
14
10
54.773888
20
179.872888
0
VERTEX
8
14
10
66.322167
20
187.027648
0
VERTEX
8
14
10
79.954482
20
195.936451
0
VERTEX
8
14
10
91.377525
20
203.815686
0
VERTEX
8
14
10
100.382192
20
210.328743
0
VERTEX
8
14
10
107.918622
20
216.036065
0
VERTEX
8
14
10
110.981311
20
218.457949
0
VERTEX
8
14
10
110.981311
20
-177.570097
0
SEQEND
8
14
0
POINT
8
2
10
-406.542066
20
-177.570097
0
TEXT
8
2
10
-406.542066
20
-177.570097
40
0.000000
50
0.000000
1
# 1
0
POINT
8
2
10
-406.542066
20
218.457949
0
TEXT
8
2
10
-406.542066
20
218.457949
40
0.000000
50
0.000000
1
# 2
0
POINT
8
2
10
110.981311
20
218.457949
0
TEXT
8
2
10
110.981311
20
218.457949
40
0.000000
50
0.000000
1
# 3
0
POINT
8
2
10
110.981311
20
-177.570097
0
TEXT
8
2
10
110.981311
20
-177.570097
40
0.000000
50
0.000000
1
# 4
0
POINT
8
3
10
-396.176086
20
210.839432
0
POINT
8
3
10
-385.189298
20
203.253545
0
POINT
8
3
10
-373.901568
20
195.843706
0
POINT
8
3
10
-360.581159
20
187.538838
0
POINT
8
3
10
-345.401639
20
178.613174
0
POINT
8
3
10
-332.901371
20
171.676498
0
POINT
8
3
10
-319.526209
20
164.660572
0
POINT
8
3
10
-305.349378
20
157.681088
0
POINT
8
3
10
-290.444102
20
150.853740
0
POINT
8
3
10
-274.883605
20
144.294218
0
POINT
8
3
10
-264.182088
20
140.127129
0
POINT
8
3
10
-253.243603
20
136.164771
0
POINT
8
3
10
-242.089844
20
132.441424
0
POINT
8
3
10
-230.742509
20
128.991368
0
POINT
8
3
10
-219.223292
20
125.848882
0
POINT
8
3
10
-207.553890
20
123.048244
0
POINT
8
3
10
-195.756000
20
120.623734
0
POINT
8
3
10
-183.851316
20
118.609630
0
POINT
8
3
10
-171.861536
20
117.040213
0
POINT
8
3
10
-159.808354
20
115.949761
0
POINT
8
3
10
-147.713468
20
115.372553
0
POINT
8
3
10
-135.598573
20
115.342869
0
POINT
8
3
10
-127.336452
20
115.654208
0
POINT
8
3
10
-109.202490
20
117.301721
0
POINT
8
3
10
-97.177350
20
119.086409
0
POINT
8
3
10
-85.234038
20
121.371085
0
POINT
8
3
10
-73.398694
20
124.113672
0
POINT
8
3
10
-61.697454
20
127.272094
0
POINT
8
3
10
-50.156458
20
130.804273
0
POINT
8
3
10
-38.801844
20
134.668134
0
POINT
8
3
10
-27.659750
20
138.821599
0
POINT
8
3
10
-16.756314
20
143.222593
0
POINT
8
3
10
-6.117675
20
147.829037
0
POINT
8
3
10
4.230029
20
152.598857
0
POINT
8
3
10
14.260661
20
157.489974
0
POINT
8
3
10
28.654918
20
164.962042
0
POINT
8
3
10
42.188732
20
172.470349
0
POINT
8
3
10
54.773888
20
179.872888
0
POINT
8
3
10
66.322167
20
187.027648
0
POINT
8
3
10
79.954482
20
195.936451
0
POINT
8
3
10
91.377525
20
203.815686
0
POINT
8
3
10
100.382192
20
210.328743
0
POINT
8
3
10
107.918622
20
216.036065
0
LINE
8
7
10
-142.735385
20
-148.277052
11
-142.735385
21
86.067311
0
TEXT
8
1
10
-147.780377
20
20.443926
40
10.000000
50
0.000000
1
Piece Name: noname
0
TEXT
8
1
10
-147.780377
20
35.443926
40
10.000000
50
0.000000
1
Size: M
0
TEXT
8
1
10
-147.780377
20
50.443926
40
10.000000
50
0.000000
1
Annotation: 
0
TEXT
8
1
10
-147.780377
20
65.443926
40
10.000000
50
0.000000
1
Quantity: 1
0
TEXT
8
1
10
-147.780377
20
80.443926
40
10.000000
50
0.000000
1
Category: 0
0
ENDBLK
0
ENDSEC
0
SECTION
2
ENTITIES
0
INSERT
8
1
2
-M
10
-147.735385
20
11.852505
0
TEXT
8
1
10
-147.780377
20
-197.570097
40
10.000000
50
0.000000
1
Style Name: ET2005
0
TEXT
8
1
10
-147.780377
20
-212.570097
40
10.000000
50
0.000000
1
Creation Date: 
0
TEXT
8
1
10
-147.780377
20
-227.570097
40
10.000000
50
0.000000
1
Author: ET2005
0
TEXT
8
1
10
-147.780377
20
-242.570097
40
10.000000
50
0.000000
1
Sample Size: M
0
TEXT
8
1
10
-147.780377
20
-257.570097
40
10.000000
50
0.000000
1
Grading Rule Table: A
0
TEXT
8
1
10
-147.780377
20
-272.570097
40
10.000000
50
0.000000
1
Units: METRIC
0
ENDSEC
0
EOF
